<svg class="w-10 h-10" viewBox="0 0 254 107" fill="none" xmlns="http://www.w3.org/2000/svg">
  <path d="M3 103.824C45.3292 106.086 85.2951 90.8282 118.182 63.953C129.508 54.6969 140.763 42.4172 147.387 29.1688C150.391 23.1616 154.398 11.338 149.274 5.78786C140.768 -3.42746 129.585 13.6307 125.893 19.9805C119.22 31.4586 124.234 53.8078 136.148 60.2613C158.264 72.2407 191.043 69.3799 215.315 68.3011C225.006 67.8703 234.869 65.4297 244.439 65.4297C248.152 65.4297 239.179 60.7699 237.794 59.5229C229.618 52.165 229.186 52.3018 239.27 58.7846C240.667 59.6823 250.92 65.2052 250.92 66.168C250.92 66.84 233.48 79.6822 231.887 81.6733" stroke="#de5d83" stroke-width="5" stroke-linecap="round"/>
</svg>