<?xml version="1.0" encoding="UTF-8" standalone="no"?>
<svg width="170px" height="34px" viewBox="0 0 170 34" version="1.1" xmlns="http://www.w3.org/2000/svg" xmlns:xlink="http://www.w3.org/1999/xlink" xmlns:sketch="http://www.bohemiancoding.com/sketch/ns">
    <!-- Generator: Sketch 3.0.1 (7597) - http://www.bohemiancoding.com/sketch -->
    <title>buttons-light</title>
    <description>Created with Sketch.</description>
    <defs></defs>
    <g id="Page-1" stroke="none" stroke-width="1" fill="none" fill-rule="evenodd" sketch:type="MSPage">
        <g id="buttons-light" sketch:type="MSArtboardGroup" fill="#FFFFFF">
            <path d="M136,0 L136,34 L170,34 L170,0 L136,0 Z M153.585786,17 L149.464466,12.8786797 L150.87868,11.4644661 L156.414214,17 L153.585786,17 L153.585786,17 Z M153.585786,17 L149.464466,21.1213203 L150.87868,22.5355339 L156.414214,17 L153.585786,17 L153.585786,17 Z" id="Scroll" sketch:type="MSShapeGroup" transform="translate(153.000000, 17.000000) rotate(90.000000) translate(-153.000000, -17.000000) "></path>
            <path d="M102,0 L102,34 L136,34 L136,0 L102,0 Z M113,16 L113,18 L115,18 L115,16 L113,16 Z M118,16 L118,18 L120,18 L120,16 L118,16 Z M123,16 L123,18 L125,18 L125,16 L123,16 Z" id="More" sketch:type="MSShapeGroup"></path>
            <path d="M34,0 L34,34 L68,34 L68,0 L34,0 Z M43,11 L43,13 L59,13 L59,11 L43,11 Z M43,16 L43,18 L59,18 L59,16 L43,16 Z M43,21 L43,23 L59,23 L59,21 L43,21 Z" id="Open" sketch:type="MSShapeGroup"></path>
            <path d="M85,18.4142136 L80.0502525,23.363961 L78.636039,21.9497475 L83.5857864,17 L78.636039,12.0502525 L80.0502525,10.636039 L85,15.5857864 L89.9497475,10.636039 L91.363961,12.0502525 L86.4142136,17 L91.363961,21.9497475 L89.9497475,23.363961 L85,18.4142136 Z M68,0 L68,34 L102,34 L102,0 L68,0 Z" id="Close" sketch:type="MSShapeGroup"></path>
            <path d="M20,12 L14,12 L14,9 L12,9 L12,12 L9,12 L9,14 L12,14 L12,14 L12,20 L9,20 L9,22 L12,22 L12,25 L14,25 L14,22 L20,22 L20,25 L22,25 L22,22 L25,22 L25,20 L22,20 L22,14 L25,14 L25,12 L22,12 L22,9 L20,9 L20,12 Z M20,14 L14,14 L14,20 L20,20 L20,14 Z M0,0 L0,34 L34,34 L34,0 L0,0 Z" id="Logo" sketch:type="MSShapeGroup"></path>
        </g>
    </g>
</svg>